<svg width="661" height="119" viewBox="0 0 661 119" fill="none" xmlns="http://www.w3.org/2000/svg">
<g filter="url(#filter0_di_302_12)">
<path d="M52.504 33.488C55.064 29.648 56.344 26.064 56.344 22.736C56.344 19.408 55.4053 16.7627 53.528 14.8C51.6507 12.8373 49.176 11.856 46.104 11.856C43.032 11.856 40.5573 12.624 38.68 14.16C36.8027 15.6107 35.864 17.9573 35.864 21.2C35.864 24.3573 38.0827 30.0747 42.52 38.352C46.9573 46.6293 49.7733 51.9627 50.968 54.352C54.2107 60.8373 55.832 67.1093 55.832 73.168C55.832 80.7627 53.0587 86.9493 47.512 91.728C42.0507 96.4213 35.5653 98.768 28.056 98.768C20.632 98.768 14.7867 96.464 10.52 91.856C6.25333 87.1627 4.12 81.7013 4.12 75.472C4.12 63.952 11.2453 54.4373 25.496 46.928C19.6933 35.4933 16.792 27.5147 16.792 22.992C16.792 16.6773 19.3093 11.344 24.344 6.992C29.464 2.55466 35.6933 0.335999 43.032 0.335999C50.456 0.335999 56.1307 2.21333 60.056 5.96799C63.9813 9.72266 65.944 14.5013 65.944 20.304C65.944 24.144 64.664 28.5387 62.104 33.488H52.504ZM18.968 83.408C21.272 85.8827 24.0453 87.12 27.288 87.12C30.616 87.12 33.176 86.1813 34.968 84.304C36.8453 82.3413 37.784 79.4827 37.784 75.728C37.784 72.3147 36.4613 68.1333 33.816 63.184C33.4747 62.5013 32.8347 61.264 31.896 59.472C30.9573 57.5947 30.2747 56.272 29.848 55.504C20.2907 60.4533 15.512 66.6827 15.512 74.192C15.512 78.032 16.664 81.104 18.968 83.408ZM105.788 54.608C105.788 49.0613 103.313 46.288 98.364 46.288C94.6947 46.288 91.4093 48.3787 88.508 52.56C85.436 57.0827 83.9 62.3733 83.9 68.432C83.9 74.4907 85.2227 79.184 87.868 82.512C90.5987 85.7547 94.3107 87.376 99.004 87.376C104.636 87.376 110.567 85.072 116.796 80.464C123.111 75.856 128.188 70.1387 132.028 63.312C133.735 64.592 135.399 66.9387 137.02 70.352C134.545 75.3013 129.937 80.848 123.196 86.992C119.697 90.2347 115.345 92.9653 110.14 95.184C104.508 97.5733 98.876 98.768 93.244 98.768C85.6493 98.768 79.2067 96.1653 73.916 90.96C68.7107 85.7547 66.108 78.9707 66.108 70.608C66.108 60.4533 69.5213 52.2187 76.348 45.904C83.1747 39.5893 90.812 36.432 99.26 36.432C105.831 36.432 111.036 37.7973 114.876 40.528C118.716 43.2587 120.636 46.8427 120.636 51.28C120.636 54.1813 119.612 56.6987 117.564 58.832C113.809 62.5867 109.244 64.464 103.868 64.464C105.148 60.1973 105.788 56.912 105.788 54.608ZM160.668 83.408L163.74 55.12C163.74 52.816 163.143 50.896 161.948 49.36C160.753 47.824 158.833 47.056 156.188 47.056C153.543 47.056 151.281 48.1227 149.404 50.256C147.612 52.304 146.289 55.0347 145.436 58.448C144.839 63.312 143.943 70.4373 142.748 79.824C141.553 89.1253 140.785 95.184 140.444 98H123.42C129.564 45.6907 133.276 13.5627 134.556 1.616C136.348 0.933329 138.78 0.591995 141.852 0.591995C148.508 0.591995 151.836 2.55466 151.836 6.48V7.24799C150.385 20.6453 148.849 32.4213 147.228 42.576C151.751 38.48 156.871 36.432 162.588 36.432C168.305 36.432 172.828 37.8827 176.156 40.784C179.484 43.6853 181.148 47.3547 181.148 51.792C181.148 52.9867 180.892 55.2053 180.38 58.448C178.417 71.248 177.436 78.7573 177.436 80.976C177.436 84.9867 178.759 86.992 181.404 86.992C183.623 86.992 185.969 85.5413 188.444 82.64C191.004 79.6533 193.052 75.088 194.588 68.944C197.489 72.016 199.239 74.448 199.836 76.24C195.399 91.088 187.548 98.512 176.284 98.512C170.993 98.512 167.068 96.8907 164.508 93.648C161.948 90.4053 160.668 86.992 160.668 83.408ZM206.501 98.896C201.296 98.896 197.2 97.4453 194.213 94.544C191.226 91.5573 189.733 87.504 189.733 82.384C189.733 81.0187 192.037 60.752 196.645 21.584C197.84 11.5147 201.04 5.15733 206.245 2.51199C208.634 1.23199 211.493 0.591995 214.821 0.591995C226.085 0.591995 231.717 5.79733 231.717 16.208C231.717 17.0613 231.674 17.9573 231.589 18.896C230.736 30.3307 223.568 41.9787 210.085 53.84C209.658 58.0213 209.189 62.0747 208.677 66C207.653 74.7893 207.141 79.6533 207.141 80.592C207.141 85.0293 209.061 87.248 212.901 87.248C217.082 87.248 220.965 84.8587 224.549 80.08C228.218 75.216 231.034 69.0293 232.997 61.52C233.765 61.776 234.832 62.5013 236.197 63.696C237.562 64.8053 238.501 65.7867 239.013 66.64C237.648 73.7227 234.576 80.5067 229.797 86.992C227.408 90.32 224.378 93.0507 220.709 95.184C216.528 97.6587 211.792 98.896 206.501 98.896ZM211.493 41.04C219.344 32.4213 223.269 24.6987 223.269 17.872C223.269 13.776 221.733 11.728 218.661 11.728C216.698 11.8987 215.376 13.1787 214.693 15.568C214.096 17.9573 213.498 21.84 212.901 27.216C212.389 32.592 212.048 35.92 211.877 37.2L211.493 41.04ZM414.327 53.328C409.378 56.8267 406.903 62.032 406.903 68.944C406.903 73.296 408.439 77.392 411.511 81.232C414.668 85.072 419.959 86.992 427.383 86.992C434.807 86.992 441.847 84.4747 448.503 79.44C455.159 74.4053 460.194 68.9013 463.607 62.928L467.959 70.736C456.951 89.424 441.634 98.768 422.007 98.768C412.279 98.768 404.044 96.1653 397.303 90.96C390.562 85.6693 387.191 79.4827 387.191 72.4C387.191 60.0267 392.695 51.0667 403.703 45.52C400.034 40.9973 398.199 35.7067 398.199 29.648C398.199 21.712 401.612 14.8853 408.439 9.168C415.351 3.45066 423.33 0.591995 432.375 0.591995C441.42 0.591995 448.375 2.896 453.239 7.504C458.188 12.112 460.663 18.1707 460.663 25.68H448.503C448.588 21.072 447.351 17.616 444.791 15.312C442.316 12.9227 438.818 11.728 434.295 11.728C429.858 11.728 425.847 13.3493 422.263 16.592C418.252 20.0907 416.247 24.1867 416.247 28.88C416.247 33.5733 417.527 37.6267 420.087 41.04C428.62 40.016 435.106 40.5707 439.543 42.704C442.274 43.984 443.639 46.032 443.639 48.848C443.639 51.5787 442.06 53.4987 438.903 54.608C435.831 55.7173 432.119 56.272 427.767 56.272C423.415 56.272 418.935 55.2907 414.327 53.328ZM507.184 98.64C499.333 98.64 494.128 95.9093 491.568 90.448C487.131 95.9947 481.413 98.768 474.416 98.768C467.504 98.768 461.659 96.4213 456.88 91.728C452.187 87.0347 449.84 80.848 449.84 73.168C449.84 61.9893 453.125 53.072 459.696 46.416C466.267 39.76 474.587 36.432 484.656 36.432C484.912 36.432 485.168 36.432 485.424 36.432C489.691 36.432 493.616 37.1573 497.2 38.608C499.504 37.1573 502.277 36.432 505.52 36.432C508.848 36.432 511.237 36.8587 512.688 37.712C511.92 44.0267 511.109 50.256 510.256 56.4C509.403 62.4587 508.805 66.768 508.464 69.328C507.696 75.1307 507.312 79.312 507.312 81.872C507.312 85.2853 508.677 86.992 511.408 86.992C513.541 86.992 515.803 85.584 518.192 82.768C520.581 79.8667 522.672 75.344 524.464 69.2C526.939 71.4187 528.645 73.8933 529.584 76.624C527.109 84.7307 523.781 90.448 519.6 93.776C515.419 97.0187 511.28 98.64 507.184 98.64ZM486.576 46.416C481.115 46.416 476.763 48.5067 473.52 52.688C470.363 56.784 468.485 62.928 467.888 71.12C467.803 71.888 467.76 72.6133 467.76 73.296C467.76 77.4773 468.741 80.8053 470.704 83.28C472.752 85.7547 475.355 86.992 478.512 86.992C483.888 86.992 487.941 83.1947 490.672 75.6L493.744 47.952C491.269 46.928 488.88 46.416 486.576 46.416ZM573.853 58.832C580.594 63.7813 583.965 69.6267 583.965 76.368C583.965 83.1093 581.32 88.528 576.029 92.624C570.738 96.72 564.082 98.768 556.061 98.768C550.856 98.768 546.504 97.488 543.005 94.928C539.592 92.2827 537.885 89.04 537.885 85.2C537.885 81.36 539.165 78.3307 541.725 76.112C544.285 73.808 547.485 72.4 551.325 71.888C549.533 74.448 548.637 76.9227 548.637 79.312C548.637 81.616 549.448 83.4933 551.069 84.944C552.69 86.3947 554.738 87.12 557.213 87.12C559.688 87.12 561.736 86.224 563.357 84.432C564.978 82.5547 565.789 80.4213 565.789 78.032C565.789 74.1067 563.954 70.608 560.285 67.536C558.066 65.744 555.677 64.08 553.117 62.544C550.557 60.9227 549.192 60.0693 549.021 59.984C548.68 59.728 548.338 59.5147 547.997 59.344C546.461 61.136 544.242 63.6107 541.341 66.768C538.44 69.84 536.136 72.3147 534.429 74.192C529.65 79.3973 526.962 83.7493 526.365 87.248C526.194 87.9307 526.109 89.2533 526.109 91.216C526.109 93.0933 526.664 95.056 527.773 97.104C528.968 99.152 530.376 100.688 531.997 101.712C533.618 102.736 535.197 103.547 536.733 104.144C538.354 104.827 539.72 105.296 540.829 105.552C542.024 105.808 542.621 105.979 542.621 106.064C542.621 106.661 541.682 107.344 539.805 108.112C536.306 109.392 532.637 110.032 528.797 110.032C525.042 110.032 521.373 108.667 517.789 105.936C512.925 102.181 510.493 97.1893 510.493 90.96C510.493 87.12 511.474 83.3227 513.437 79.568C516.936 72.912 525.128 63.7813 538.013 52.176C534.856 49.0187 533.277 45.648 533.277 42.064C533.277 38.48 534.6 35.4507 537.245 32.976C539.976 30.5013 543.176 29.264 546.845 29.264C550.173 29.264 553.074 30.5867 555.549 33.232C557.17 35.024 557.981 37.2853 557.981 40.016C557.981 42.7467 557.085 45.8187 555.293 49.232C564.424 53.328 570.61 56.528 573.853 58.832ZM546.077 44.368C548.125 42.2347 549.149 40.6987 549.149 39.76C549.149 37.6267 548.21 36.4747 546.333 36.304C544.2 36.304 543.133 37.4987 543.133 39.888C543.133 41.3387 544.114 42.832 546.077 44.368ZM610.032 69.328C615.323 68.2187 619.248 66.0853 621.808 62.928C624.453 59.7707 625.776 56.7413 625.776 53.84C625.776 50.8533 624.965 48.848 623.344 47.824C621.808 46.7147 620.101 46.16 618.224 46.16C614.213 46.16 610.672 48.4213 607.6 52.944C604.613 57.3813 603.12 62.7147 603.12 68.944C603.12 75.088 604.571 79.696 607.472 82.768C610.459 85.7547 614.128 87.248 618.48 87.248C624.88 87.248 631.024 85.0293 636.912 80.592C642.8 76.1547 647.579 70.352 651.248 63.184C653.125 64.976 654.832 67.1947 656.368 69.84C653.552 76.24 648.56 82.512 641.392 88.656C637.808 91.6427 633.541 94.0747 628.592 95.952C623.728 97.8293 618.693 98.768 613.488 98.768C604.955 98.768 598.213 96.1653 593.264 90.96C587.973 85.328 585.328 78.1173 585.328 69.328C585.328 60.5387 588.613 52.8587 595.184 46.288C601.84 39.7173 609.776 36.432 618.992 36.432C625.563 36.432 630.896 37.8827 634.992 40.784C639.088 43.6 641.179 47.44 641.264 52.304C641.264 58.8747 638.619 64.208 633.328 68.304C628.123 72.4 620.955 75.2587 611.824 76.88L610.032 69.328Z" fill="black"/>
<path d="M313.25 67.75C313.25 73.5 311.792 78.375 308.875 82.375C306.042 86.2917 302.375 89.5 297.875 92C293.458 94.4167 288.625 96.2083 283.375 97.375C278.125 98.4583 273.125 99 268.375 99C263.708 99 258.833 98.4167 253.75 97.25C248.75 96.0833 244.125 94.25 239.875 91.75C235.708 89.25 232.25 86.0417 229.5 82.125C226.833 78.125 225.5 73.3333 225.5 67.75C225.5 61.6667 226.958 56.625 229.875 52.625C232.792 48.625 236.458 45.4583 240.875 43.125C245.375 40.7917 250.292 39.1667 255.625 38.25C261.042 37.3333 266.25 36.875 271.25 36.875C275.833 36.875 280.583 37.4583 285.5 38.625C290.5 39.7917 295.042 41.625 299.125 44.125C303.292 46.5417 306.667 49.7083 309.25 53.625C311.917 57.5417 313.25 62.25 313.25 67.75ZM292.625 67.5C292.625 64.5 292.042 61.75 290.875 59.25C289.792 56.75 288.25 54.5833 286.25 52.75C284.333 50.9167 282.083 49.5 279.5 48.5C276.917 47.5 274.167 47 271.25 47C268.25 47 265.25 47.4583 262.25 48.375C259.25 49.2083 256.542 50.4583 254.125 52.125C251.708 53.7917 249.75 55.9167 248.25 58.5C246.75 61 246 63.875 246 67.125C246 70.375 246.5 73.3333 247.5 76C248.583 78.6667 250.083 80.9583 252 82.875C254 84.7917 256.333 86.2917 259 87.375C261.667 88.375 264.625 88.875 267.875 88.875C271.375 88.875 274.625 88.5 277.625 87.75C280.625 86.9167 283.25 85.625 285.5 83.875C287.75 82.125 289.5 79.9167 290.75 77.25C292 74.5 292.625 71.25 292.625 67.5ZM388.25 37C388.25 40.4167 387.208 43.25 385.125 45.5C383.042 47.6667 380.25 48.75 376.75 48.75C374.167 48.75 372.167 48.2917 370.75 47.375C369.333 46.375 368.125 45.2917 367.125 44.125C366.208 42.875 365.25 41.7917 364.25 40.875C363.333 39.875 362 39.375 360.25 39.375C357.167 39.375 354.708 40.375 352.875 42.375C351.042 44.2917 349.667 46.5833 348.75 49.25C348.667 49.4167 348.583 50.2083 348.5 51.625C348.5 53.0417 348.458 54.8333 348.375 57C348.292 59.1667 348.208 61.5417 348.125 64.125C348.042 66.7083 347.958 69.1667 347.875 71.5C347.792 73.8333 347.708 75.9167 347.625 77.75C347.542 79.5 347.5 80.6667 347.5 81.25L377.875 92.25L305.625 99.625C309.958 96.875 314.292 94.1667 318.625 91.5C322.958 88.75 327.292 86.0417 331.625 83.375L327 39.75L299.125 32.25L349.5 21.25L349.25 32.75C352.75 30.3333 356.333 28.2917 360 26.625C363.75 24.875 367.875 24 372.375 24C373.875 24 375.417 24.1667 377 24.5C378.583 24.8333 380.083 25.3333 381.5 26C382.917 26.6667 384.167 27.5833 385.25 28.75C386.333 29.8333 387.125 31.1667 387.625 32.75C388.042 34.25 388.25 35.6667 388.25 37Z" fill="#F106E2" fill-opacity="0.4"/>
<path d="M313.25 67.75C313.25 73.5 311.792 78.375 308.875 82.375C306.042 86.2917 302.375 89.5 297.875 92C293.458 94.4167 288.625 96.2083 283.375 97.375C278.125 98.4583 273.125 99 268.375 99C263.708 99 258.833 98.4167 253.75 97.25C248.75 96.0833 244.125 94.25 239.875 91.75C235.708 89.25 232.25 86.0417 229.5 82.125C226.833 78.125 225.5 73.3333 225.5 67.75C225.5 61.6667 226.958 56.625 229.875 52.625C232.792 48.625 236.458 45.4583 240.875 43.125C245.375 40.7917 250.292 39.1667 255.625 38.25C261.042 37.3333 266.25 36.875 271.25 36.875C275.833 36.875 280.583 37.4583 285.5 38.625C290.5 39.7917 295.042 41.625 299.125 44.125C303.292 46.5417 306.667 49.7083 309.25 53.625C311.917 57.5417 313.25 62.25 313.25 67.75ZM292.625 67.5C292.625 64.5 292.042 61.75 290.875 59.25C289.792 56.75 288.25 54.5833 286.25 52.75C284.333 50.9167 282.083 49.5 279.5 48.5C276.917 47.5 274.167 47 271.25 47C268.25 47 265.25 47.4583 262.25 48.375C259.25 49.2083 256.542 50.4583 254.125 52.125C251.708 53.7917 249.75 55.9167 248.25 58.5C246.75 61 246 63.875 246 67.125C246 70.375 246.5 73.3333 247.5 76C248.583 78.6667 250.083 80.9583 252 82.875C254 84.7917 256.333 86.2917 259 87.375C261.667 88.375 264.625 88.875 267.875 88.875C271.375 88.875 274.625 88.5 277.625 87.75C280.625 86.9167 283.25 85.625 285.5 83.875C287.75 82.125 289.5 79.9167 290.75 77.25C292 74.5 292.625 71.25 292.625 67.5ZM388.25 37C388.25 40.4167 387.208 43.25 385.125 45.5C383.042 47.6667 380.25 48.75 376.75 48.75C374.167 48.75 372.167 48.2917 370.75 47.375C369.333 46.375 368.125 45.2917 367.125 44.125C366.208 42.875 365.25 41.7917 364.25 40.875C363.333 39.875 362 39.375 360.25 39.375C357.167 39.375 354.708 40.375 352.875 42.375C351.042 44.2917 349.667 46.5833 348.75 49.25C348.667 49.4167 348.583 50.2083 348.5 51.625C348.5 53.0417 348.458 54.8333 348.375 57C348.292 59.1667 348.208 61.5417 348.125 64.125C348.042 66.7083 347.958 69.1667 347.875 71.5C347.792 73.8333 347.708 75.9167 347.625 77.75C347.542 79.5 347.5 80.6667 347.5 81.25L377.875 92.25L305.625 99.625C309.958 96.875 314.292 94.1667 318.625 91.5C322.958 88.75 327.292 86.0417 331.625 83.375L327 39.75L299.125 32.25L349.5 21.25L349.25 32.75C352.75 30.3333 356.333 28.2917 360 26.625C363.75 24.875 367.875 24 372.375 24C373.875 24 375.417 24.1667 377 24.5C378.583 24.8333 380.083 25.3333 381.5 26C382.917 26.6667 384.167 27.5833 385.25 28.75C386.333 29.8333 387.125 31.1667 387.625 32.75C388.042 34.25 388.25 35.6667 388.25 37Z" fill="black" fill-opacity="0.2"/>
</g>
<defs>
<filter id="filter0_di_302_12" x="0.119995" y="0.335999" width="660.248" height="117.696" filterUnits="userSpaceOnUse" color-interpolation-filters="sRGB">
<feFlood flood-opacity="0" result="BackgroundImageFix"/>
<feColorMatrix in="SourceAlpha" type="matrix" values="0 0 0 0 0 0 0 0 0 0 0 0 0 0 0 0 0 0 127 0" result="hardAlpha"/>
<feOffset dy="4"/>
<feGaussianBlur stdDeviation="2"/>
<feComposite in2="hardAlpha" operator="out"/>
<feColorMatrix type="matrix" values="0 0 0 0 0 0 0 0 0 0 0 0 0 0 0 0 0 0 0.25 0"/>
<feBlend mode="normal" in2="BackgroundImageFix" result="effect1_dropShadow_302_12"/>
<feBlend mode="normal" in="SourceGraphic" in2="effect1_dropShadow_302_12" result="shape"/>
<feColorMatrix in="SourceAlpha" type="matrix" values="0 0 0 0 0 0 0 0 0 0 0 0 0 0 0 0 0 0 127 0" result="hardAlpha"/>
<feOffset dy="4"/>
<feGaussianBlur stdDeviation="2"/>
<feComposite in2="hardAlpha" operator="arithmetic" k2="-1" k3="1"/>
<feColorMatrix type="matrix" values="0 0 0 0 0 0 0 0 0 0 0 0 0 0 0 0 0 0 0.25 0"/>
<feBlend mode="normal" in2="shape" result="effect2_innerShadow_302_12"/>
</filter>
</defs>
</svg>
